<svg viewBox="-10 0 512 512" xmlns="http://www.w3.org/2000/svg" fill="#E98B39"><path d="m412.191406.00390625c-.03125 0-.0625-.00390625-.097656-.00390625-.015625 0-.03125 0-.046875 0s-.03125 0-.046875 0c-.03125 0-.0625.00390625-.097656.00390625-.847656.00390625-1.691406.03515625-2.535156.06640625-.453126-.03125-.90625-.0703125-1.367188-.0703125h-263c-44.113281 0-80 35.886719-80 80 0 .710938.039062 1.40625.109375 2.097656.332031 46.832032 11.554687 102.160156 23.433594 160.695313 7.3125 36.035156 14.828125 73.09375 19.960937 109.207031h-57.503906c-3.691406 0-7.3125 1.023438-10.460938 2.953125-1.636718 1.007813-39.824218 25.019531-40.492187 75.695313-.03125.445312-.046875.898437-.046875 1.351562 0 44.113281 35.886719 80 80 80h262.132812c44.011719-.105469 79.796876-35.941406 79.808594-79.980469 0-11.042969-8.949218-20-19.996094-20.003906-.003906 0-.003906 0-.003906 0-11.042968 0-20 8.953125-20 19.996094-.007812 22.035156-17.925781 39.960937-39.953125 39.988281-22.035156-.027344-39.953125-17.960938-39.953125-40 0-28.003906 19.6875-41.785156 21.515625-43.007812 7.753907-4.558594 11.308594-13.625 8.964844-22.320313-2.351563-8.730469-10.476563-14.671875-19.515625-14.671875h-164.105469c-5.296875-39.058594-13.339843-78.683594-21.148437-117.160156-11.648438-57.394532-22.648438-111.601563-22.648438-154.855469 0-.425781-.039062-.839844-.066406-1.257813.675781-21.464843 18.339844-38.726562 39.96875-38.726562h197.859375c-6.828125 11.773438-10.757813 25.425781-10.761719 39.984375 0 47.273437 11.386719 103.394531 23.449219 162.808594 6.617187 32.609375 13.460937 66.332031 18.496094 99.257812 1.515625 9.894531 10.035156 16.980469 19.746093 16.980469 1.003907 0 2.023438-.078125 3.046876-.230469 10.921874-1.671875 18.417968-11.875 16.75-22.796875-5.183594-33.882812-12.125-68.089844-18.839844-101.167968-11.648438-57.390626-22.648438-111.597657-22.648438-154.847657.003906-22.035156 17.921875-39.960937 39.953125-39.988281 22.03125.027344 39.949219 17.960938 39.949219 40 0 21.367188-11.460938 34.453125-17.703125 40h-3.296875c-11.046875 0-20 8.953125-20 20s8.953125 20 20 20h10.035156c3.691406 0 7.3125-1.023438 10.460938-2.953125 1.652344-1.015625 40.503906-25.445313 40.503906-77.046875 0-44.046875-35.785156-79.890625-79.808594-79.99609375zm-139.417968 471.99609375h-192.773438c-21.726562 0-39.460938-17.410156-39.988281-39.011719.015625-.328125.023437-.65625.023437-.988281 0-21.367188 11.460938-34.453125 17.707032-40h213.101562c-5.132812 10.839844-8.808594 24.132812-8.808594 40 0 14.5625 3.910156 28.226562 10.738282 40zm-106.773438-312c-11.046875 0-20-8.953125-20-20s8.953125-20 20-20h113c11.046875 0 20 8.953125 20 20s-8.953125 20-20 20zm125 70h-112c-11.046875 0-20-8.953125-20-20s8.953125-20 20-20h112c11.046875 0 20 8.953125 20 20s-8.953125 20-20 20zm-25 30c11.046875 0 20 8.953125 20 20s-8.953125 20-20 20h-71c-11.046875 0-20-8.953125-20-20s8.953125-20 20-20zm0 0"/></svg>