<?xml version="1.0" encoding="utf-8"?>
<!-- Generator: Adobe Illustrator 22.0.1, SVG Export Plug-In . SVG Version: 6.00 Build 0)  -->
<svg version="1.1" id="Calque_1" xmlns="http://www.w3.org/2000/svg" xmlns:xlink="http://www.w3.org/1999/xlink" x="0px" y="0px"
	 viewBox="0 0 1920 1080" style="enable-background:new 0 0 1920 1080;" xml:space="preserve">
<style type="text/css">
	.st0{fill:#E98B39;}
	.st1{fill:#B3B3B3;}
	.st2{fill:none;stroke:#E98B39;stroke-width:2;stroke-miterlimit:10;}
</style>
<path d="M875.5,412.9c9.5,0,13.3,6.1,13.3,15.2v6.9c0,9.9-4.6,14.9-14.5,14.9h-7.6v25.5h-4.2v-62.5H875.5z M874.3,445.7
	c7.2,0,10.3-3,10.3-10.7v-7.2c0-6.9-2.3-11-9.1-11h-8.8v29.3h7.6V445.7z"/>
<path d="M907.8,412.9c9.5,0,13.3,5.3,13.3,14.1v5.3c0,7.2-2.7,11.4-9.1,12.9c6.5,1.5,9.1,6.1,9.1,12.6v9.5c0,2.7,0,5.3,1.5,7.6h-4.2
	c-1.1-1.9-1.5-4.2-1.5-7.6v-9.9c0-8.4-4.6-10.7-11.8-10.7h-6.5v27.8h-4.2v-61.7H907.8z M905.6,443.4c7.2,0,11.4-1.9,11.4-10.3v-5.7
	c0-6.9-2.7-10.7-9.5-10.7h-8.8v27L905.6,443.4L905.6,443.4z"/>
<path d="M950.5,441.9v3.8h-17.1v25.9h20.6v3.8h-24.4v-62.5h24.4v3.8h-20.6v25.1C933.4,441.9,950.5,441.9,950.5,441.9z"/>
<path d="M986.7,427.8v1.5h-3.8v-1.5c0-6.5-2.7-11.4-9.1-11.4c-6.9,0-9.1,5-9.1,11.4c0,15.2,22.5,15.2,22.5,32.8
	c0,9.1-3.8,15.6-13.3,15.6s-13.3-6.5-13.3-15.6v-3h3.8v3.4c0,6.9,2.7,11.4,9.5,11.4c6.9,0,9.5-5,9.5-11.4
	c0-14.9-22.5-15.2-22.5-32.8c0-9.5,4.2-15.2,13.3-15.6C982.9,412.2,986.7,419,986.7,427.8z"/>
<path d="M1020.6,428.2v32c0,4.2-0.8,8-3,10.7c1.1,1.9,2.7,2.7,5,2.7h1.1v3.8h-1.1c-3.4,0-5.7-1.1-7.2-3.8c-1.9,1.5-4.6,2.7-8,2.7
	c-9.5,0-13.7-6.9-13.7-15.6v-32c0-9.1,4.2-15.6,13.7-15.6S1020.6,419,1020.6,428.2z M997.3,427.8v32.4c0,6.9,2.7,11.8,9.5,11.8
	c6.9,0,9.5-5,9.5-11.8v-32.4c0-6.9-2.7-11.8-9.5-11.8C1000,416,997.3,420.9,997.3,427.8z"/>
<path d="M1032,460.2c0,6.9,2.7,11.8,9.5,11.8c6.9,0,9.5-5.3,9.5-11.8v-47.2h3.8v47.2c0,8.8-3.8,15.6-13.3,15.6
	c-9.5,0-13.3-6.9-13.3-15.6v-47.2h4.2L1032,460.2L1032,460.2z"/>
<path d="M1083.8,424.4h-2.3l2.3-8h-1.5v-9.1h4.6v8.8L1083.8,424.4z"/>
<path class="st0" d="M886.1,639.5h-23.6V487.2h23.6V639.5z"/>
<path d="M971.4,639.5h-64.4V487.2h23.6v129.5h40.8V639.5z"/>
<path class="st1" d="M987.8,639.5V487.2h67.4v22.9h-43.8V552h32v22.9h-32v41.9h43.8v22.9H987.8z"/>
<line class="st2" x1="891.1" y1="663.9" x2="1028.6" y2="663.9"/>
<path d="M965.3,740.5c1.5,0.4,2.7,1.1,3.4,1.5c0.4,0.4,1.1,0.4,1.1,0.4s0,0-0.4,0c-0.4,0-0.4,0-1.1-0.4c-2.3-1.1-5-1.5-9.1-2.3
	c-3.8-0.4-8.4-1.1-13.3-1.5c-4.6-0.4-9.1-0.4-13.7-0.4c-4.6,0-8.4,0-11.4,0c-1.5,1.1-3.4,1.5-4.6,1.5c-1.1,0.4-2.3,0.4-2.7,0
	c-0.4,0-0.4,0-1.1-0.4c-0.8-0.4,0-1.1,0-2.3c0.4-0.4,1.1-1.5,2.3-2.3c1.1-0.4,2.7-1.5,5-1.5l0,0c1.1-1.5,2.7-3.8,4.6-6.5
	c1.5-2.7,3.4-5.3,5.3-8.8c1.5-3.4,3.8-6.5,5.3-9.9c1.5-3.4,3.4-6.5,4.6-9.1c0.4-0.4,1.1-2.3,2.3-4.6c1.1-2.3,2.3-4.6,3.4-7.2
	c1.1-2.3,1.5-4.6,2.3-6.5c0.4-1.5,0-2.7-1.1-2.7c-1.1,0-2.7,0.4-5.3,2.3c-2.7,1.5-6.5,4.6-10.3,8.8c-2.3,2.3-4.6,5-6.5,7.6
	c-2.3,2.7-3.8,5.3-4.6,7.6c-0.4,1.5-0.4,3.4,0,4.6c0.4,1.1,1.5,1.5,2.7,2.3c1.1,0.4,2.3,1.1,3.4,1.1c1.1,0,1.5,0.4,1.5,0.4
	c-1.5,0-3.4,0-4.6,0c-1.5,0-2.7-0.4-4.6-1.1c-1.1-0.4-2.3-1.5-2.7-2.7s-0.4-2.7,0-5c0.4-3.4,2.3-6.5,5-9.9c2.7-3.4,5.3-6.1,8.8-8.4
	s6.5-4.6,9.9-6.1c3.4-1.5,5.3-2.3,7.2-2.3c3.8-0.4,5.3,1.1,6.1,5.3c0,4.6-2.3,11-6.5,19.8c-1.1,2.3-2.7,5-3.8,8.4
	c-1.5,2.7-3.4,6.1-5,8.8c-1.5,2.7-3.4,5.3-4.6,8.4c-1.1,3-2.7,4.6-3.8,5.3c2.3,0,5.3,0.4,8.8,1.1c3.4,0.8,6.5,1.1,10.3,1.5
	c3.4,0.4,7.2,1.5,10.3,2.3C960,738.2,962.7,739.3,965.3,740.5z"/>
<path d="M960.4,719.5c1.1-1.5,2.3-3.4,3.4-5.3c1.1-1.5,1.5-3.8,2.7-6.1c0-0.4,0.4-1.1,1.1-1.1c0.4,0,1.1,0,1.5,0.4
	c0.4,0.4,1.1,1.1,1.5,1.5c0.4,0.4,0.4,1.5,0,2.3c0,0.4-0.4,1.5-1.1,3.4c-0.4,1.5-1.5,3.4-2.3,5c-0.4,1.5-1.1,3.4-1.5,4.6
	c-0.4,1.1,0,2.3,0.4,2.7c0.4,0.4,1.5,0,2.7-1.1c1.1-1.1,2.3-2.7,3.4-3.8c1.1-1.5,1.5-3.4,2.7-5c1.1-1.5,0.4-2.3,0.4-2.3
	c0,0.4-0.4,1.1-0.4,2.3s-0.4,2.3-1.5,3.8c-0.4,1.1-1.1,2.7-2.3,3.8c-0.4,1.1-1.5,2.3-2.3,2.7c-1.5,1.5-3.4,1.5-5.3,0.4
	c0,0.4-0.4,1.1-1.1,2.3c-0.4,0.4-0.4,1.5-1.1,2.7c-0.4,1.1-0.4,1.5-1.1,2.3c-0.8,0.8-0.4,1.1-0.4,1.5c-0.4,1.1-1.1,2.3-2.3,3.8
	c-1.1,1.5-2.3,3.4-3.4,5c-1.1,1.5-2.7,3.4-4.6,4.6c-1.5,1.1-3.4,2.3-5.3,2.7c-2.3,0.4-3.8,0.4-5-0.4c-0.4-1.1-1.1-2.3-1.1-3.8
	c0-1.5,0.4-2.7,1.5-5c1.1-1.5,2.3-3.4,3.8-5c1.5-1.5,3.4-2.7,5.3-3.8c1.5-1.1,3.8-1.5,5.3-1.5c-1.5,0-3.4,1.1-5,2.3
	c-1.5,1.1-3.4,2.7-5,3.8c-1.5,1.1-2.7,3.4-3.4,5c-1.1,1.5-1.5,2.7-1.5,3.8c0,1.1,0,2.3,0,2.7s1.1,1.1,2.3,1.1c1.5,0,2.7-1.1,4.6-3.4
	c1.5-2.3,3.4-4.6,5-7.2c1.5-2.7,3.4-5.3,5-8.8s2.7-6.1,3.8-8.4c0-1.1,0.4-1.5,0.4-2.3c-3.4,4.6-6.1,7.2-7.6,8.8
	c-1.5,1.5-2.7,2.3-3.4,2.3c-2.3,0.4-3.4-0.4-4.6-1.5c-0.4-0.4-0.4-1.5-0.4-2.7c0-1.1,0.4-1.5,1.1-2.3c0.4-1.5,1.5-3.4,2.7-5
	c1.1-2.3,1.5-3.8,2.3-5.3c0.4-1.5,1.1-3.4,1.1-5c0-1.1,0-1.5-0.4-1.5s-0.4,0,0,0s1.1,0,1.5,0s1.1,0.4,1.5,1.1
	c0.4,0.4,1.1,1.5,1.1,3.4c0,1.5,0,2.7-1.1,5c-0.4,1.5-1.5,3.8-2.3,5.3c-0.4,1.5-1.5,3.4-2.3,4.6c-0.4,1.1-1.1,2.3-1.1,2.7l0,0
	c0,0.4,0.4,0.4,1.1,0c0.4-0.4,1.5-1.1,2.7-2.3c1.1-1.1,2.3-2.3,3.4-3.4C958.2,722.2,959.3,721,960.4,719.5z"/>
<path d="M985.6,727.5c0.4,0,1.5-0.4,2.7-1.1c1.1-0.4,2.3-1.5,3.4-2.7c1.1-1.1,2.3-2.3,2.7-3.8c1.1-1.1,1.5-2.3,2.3-3.4
	c0,1.1-0.4,2.7-1.5,3.8c-0.4,1.5-1.5,2.7-2.7,3.8c-1.1,1.1-2.3,2.3-3.4,3.4c-1.1,0.4-2.3,1.1-3.4,1.1c-0.4,0-1.1,0-1.5,0
	c-1.5,1.1-3.4,2.3-4.6,2.7c-1.1,0.4-2.7,1.1-4.6,1.1c-2.3,0-3.8-0.4-5-1.5c-1.1-1.1-1.5-2.7-1.1-5s0.4-3.8,1.5-6.5
	c1.1-2.3,2.3-4.6,3.8-6.1c1.5-1.5,3.4-3.4,5-5c1.5-1.1,3.8-1.5,5.3-1.5s3.4,0.4,4.6,1.5c1.5,1.1,2.3,2.7,2.3,5
	c0,1.5-0.4,3.8-1.5,6.5C988.6,722.6,987.9,725.6,985.6,727.5z M981.8,726c0-1.5,0.4-2.7,1.5-3.8s2.7-1.1,3.8,0
	c0.4,0,0.4-0.4,1.1-1.5c0.4-1.1,0.4-2.7,0.4-3.8c0-1.5,0-2.7-0.4-3.8c-0.4-1.1-1.1-1.5-2.7-1.5c-1.1,0-2.7,0.4-3.8,1.5
	c-1.5,1.1-2.7,2.7-3.8,4.6c-1.1,1.5-2.3,3.8-3.4,5.3c-0.4,2.3-1.1,3.8-0.4,5.3c0,1.1,0.4,1.5,1.1,2.3c0.4,0.4,1.1,0.4,2.3,0.4
	c1.1,0,1.5-0.4,2.7-0.4c1.1-0.4,1.5-1.1,2.3-1.5C982.5,727.5,981.8,726.8,981.8,726z"/>
<path d="M1009.2,728.3c0,1.1,0,1.5,0.4,1.5c1.1,0,2.3-0.4,3.4-1.5c1.1-1.1,2.3-2.7,3.4-4.6c1.1-1.5,2.3-3.4,2.7-5
	c0.4-1.5,1.5-3.4,2.3-5c-0.4,2.7-1.5,5.3-3.4,8.8c-1.1,3.4-2.7,5.3-5,7.2c-0.4,0.4-1.5,1.1-2.7,1.5c-1.1,0.4-2.3,0.4-2.7,0.4
	c-1.1,0-1.5-0.4-2.3-1.1c-0.8-0.8-1.1-1.5-1.1-3.4c0-1.5,0-3.4,0.4-5c0.4-1.5,1.1-3.8,2.3-5.3c0.4-1.5,1.5-3.4,2.3-4.6
	c0.4-1.1,1.1-2.3,1.1-2.3l0,0c-0.4,0-1.5,0.4-3.4,2.3c-1.5,1.5-3.4,3.4-5.3,5.3c-1.5,2.3-3.4,4.6-5,6.5c-1.5,2.3-2.3,4.6-2.3,5.3
	c0,0.4,0,1.1,0.4,1.5c-1.1-0.4-2.3-1.1-2.7-1.5c-0.4-1.1-1.1-2.3-1.1-3.4v-0.4v0.4c0-0.4,0-1.5,0.4-3.4c0.4-1.5,1.1-3.8,2.3-6.1
	c1.1-2.3,2.3-4.6,3.4-6.1c1.1-1.5,2.7-2.7,3.8-2.7c1.1,0,2.3,0.4,2.3,1.5c0,0,0,0.4-0.4,1.5c-0.4,1.1-1.1,2.3-1.5,3.4
	c-0.4,1.1-1.5,2.3-2.3,3.8c-0.4,1.1-1.1,2.3-1.5,3.4c3.8-5,6.5-8.4,9.9-9.9c2.7-2.3,4.6-2.7,5-2.7c1.1,0,2.3,0.4,3.4,1.1
	c1.1,0.4,1.1,1.5,1.1,2.7c0,0-0.4,0.4-1.1,1.5c-0.8,1.1-1.5,3.4-2.7,5c-1.1,1.5-1.5,3.8-2.7,6.1
	C1010,725.6,1009.2,727.1,1009.2,728.3z"/>
<circle class="st2" cx="962.3" cy="547" r="224.7"/>
<g>
	<path class="st1" d="M989,181.5l35.5-84.4h20.1v84.4h12.9v20.3h-12.9v28.9h-20.1v-28.9H989V181.5z M1024.5,181.5V140l-16.6,41.5
		H1024.5z"/>
	<path class="st1" d="M1138,200.5c0,8.9-3.1,16.4-9.4,22.6c-6.3,6.2-13.7,9.3-22.5,9.3c-8.9,0-16.4-3.1-22.6-9.3
		c-6.2-6.2-9.3-13.7-9.3-22.5v-73.2c0-8.9,3.1-16.4,9.4-22.6c6.2-6.2,13.8-9.3,22.6-9.3c8.9,0,16.4,3.1,22.6,9.4
		c6.2,6.3,9.3,13.8,9.3,22.6V200.5z M1117.1,126.9c0-3.2-1.1-5.9-3.4-8.2c-2.3-2.3-5-3.4-8.2-3.4c-3.2,0-5.9,1.1-8.1,3.4
		c-2.2,2.3-3.4,5-3.4,8.2v73.3c0,3.2,1.1,5.9,3.4,8.2c2.2,2.3,5,3.4,8.1,3.4c3.2,0,6-1.1,8.2-3.4c2.3-2.3,3.4-5,3.4-8.2V126.9z"/>
	<path class="st1" d="M1151.8,181.5l35.5-84.4h20.1v84.4h12.9v20.3h-12.9v28.9h-20.1v-28.9h-35.5V181.5z M1187.4,181.5V140
		l-16.6,41.5H1187.4z"/>
</g>
<g>
	<path class="st0" d="M764.8,183v4.2h-19.1v29.2h23v4.2h-27.6v-70h27.6v4.2h-23V183H764.8z"/>
	<path class="st0" d="M790.8,150.6c10.7,0,15,5.9,15,15.8v6.1c0,8.2-3.2,12.9-10.1,14.5c7.2,1.6,10.1,6.7,10.1,14.3v10.9
		c0,2.9,0.2,6.1,1.7,8.4h-4.8c-1.2-2.1-1.5-4.6-1.5-8.4v-11c0-9.3-5.1-11.9-13.1-11.9h-7.3v31.3h-4.6v-70H790.8z M788.2,185.1
		c8.2,0,13-2.3,13-11.7v-6.6c0-7.5-2.9-12-10.5-12h-9.9v30.3H788.2z"/>
	<path class="st0" d="M829.4,150.6c10.7,0,15,5.9,15,15.8v6.1c0,8.2-3.2,12.9-10.1,14.5c7.2,1.6,10.1,6.7,10.1,14.3v10.9
		c0,2.9,0.2,6.1,1.7,8.4h-4.8c-1.2-2.1-1.5-4.6-1.5-8.4v-11c0-9.3-5.1-11.9-13.1-11.9h-7.3v31.3h-4.6v-70H829.4z M826.8,185.1
		c8.2,0,13-2.3,13-11.7v-6.6c0-7.5-2.9-12-10.5-12h-9.9v30.3H826.8z"/>
	<path class="st0" d="M853.1,167.7c0-10.2,4.7-17.7,15.3-17.7c10.8,0,15.5,7.5,15.5,17.7v35.8c0,10.2-4.7,17.7-15.5,17.7
		c-10.6,0-15.3-7.5-15.3-17.7V167.7z M857.7,203.8c0,7.6,3,13.2,10.7,13.2c7.8,0,10.9-5.6,10.9-13.2v-36.4c0-7.6-3.1-13.2-10.9-13.2
		c-7.7,0-10.7,5.6-10.7,13.2V203.8z"/>
	<path class="st0" d="M906.1,150.6c10.7,0,15,5.9,15,15.8v6.1c0,8.2-3.2,12.9-10.1,14.5c7.2,1.6,10.1,6.7,10.1,14.3v10.9
		c0,2.9,0.2,6.1,1.7,8.4H918c-1.2-2.1-1.5-4.6-1.5-8.4v-11c0-9.3-5.1-11.9-13.1-11.9h-7.3v31.3h-4.6v-70H906.1z M903.5,185.1
		c8.2,0,13-2.3,13-11.7v-6.6c0-7.5-2.9-12-10.5-12h-9.9v30.3H903.5z"/>
</g>
<line class="st2" x1="822" y1="277" x2="1092" y2="277"/>
<g>
	<path class="st0" d="M725.4,825.7c4.9,0,8.8,1.6,11.7,4.7c2.7,3,4.1,6.7,4.1,11.3v9.7c0,4.4-1.5,8.2-4.6,11.3
		c-3.1,3.1-6.8,4.7-11.1,4.7h-5.8v25.2h-10.1v-66.8H725.4z M731.4,841.8c0-1.8-0.5-3.2-1.6-4.2c-1-1.1-2.4-1.6-4.2-1.6h-6.1v21.3
		h6.1c1.6,0,3-0.6,4.1-1.7c1.1-1.1,1.7-2.5,1.7-4.1V841.8z"/>
	<path class="st0" d="M755.7,877.1l-2.5,15.3h-10.5l11.3-66.8H768l11.2,66.8h-10.5l-2.4-15.3H755.7z M761,841l-3.7,26.3h7.5L761,841
		z"/>
	<path class="st0" d="M802.1,893.3c-4.4,0-8.2-1.6-11.3-4.7c-3.1-3.1-4.7-6.9-4.7-11.2v-36.6c0-4.4,1.6-8.2,4.7-11.3
		c3.1-3.1,6.9-4.7,11.3-4.7c4.4,0,8.2,1.6,11.3,4.7s4.6,6.9,4.6,11.3v7.6h-10.4v-7.8c0-1.6-0.6-3-1.7-4.1c-1.1-1.1-2.5-1.7-4.1-1.7
		c-1.6,0-2.9,0.6-4.1,1.7c-1.1,1.1-1.7,2.5-1.7,4.1v36.7c0,1.6,0.6,3,1.7,4.1c1.1,1.1,2.5,1.7,4.1,1.7c1.6,0,3-0.6,4.1-1.7
		c1.1-1.1,1.7-2.5,1.7-4.1v-13.1H802V854h16v23.3c0,4.4-1.6,8.2-4.7,11.3C810.2,891.8,806.4,893.3,802.1,893.3z"/>
	<path class="st0" d="M826.7,892.5v-66.8h28.7v10.1h-18.6V854h13.6v10.1h-13.6v18.3h18.6v10.1H826.7z"/>
	<path class="st0" d="M900.7,825.7l13.3,44.9v-44.9h10.1v66.8h-10.8l-13.9-42.8v42.8h-10.1v-66.8H900.7z"/>
	<path class="st0" d="M948.8,824.9c4.4,0,8.2,1.6,11.3,4.7c3.1,3.1,4.7,6.9,4.7,11.3v36.4c0,4.4-1.6,8.2-4.7,11.3
		c-3.1,3.1-6.9,4.7-11.3,4.7c-4.4,0-8.2-1.6-11.3-4.7c-3.1-3.1-4.6-6.9-4.6-11.3v-36.4c0-4.4,1.6-8.2,4.7-11.3
		C940.7,826.4,944.4,824.9,948.8,824.9z M954.3,840.7c0-1.6-0.6-3-1.7-4.1c-1.1-1.1-2.5-1.7-4.1-1.7c-1.6,0-2.9,0.6-4.1,1.7
		c-1.1,1.1-1.7,2.5-1.7,4.1v36.6c0,1.6,0.6,2.9,1.7,4.1c1.1,1.1,2.5,1.7,4.1,1.7c1.6,0,3-0.6,4.1-1.7s1.7-2.5,1.7-4.1V840.7z"/>
	<path class="st0" d="M982.4,835.7h-10.7v-10.1h31.4v10.1h-10.7v56.7h-10.1V835.7z"/>
	<path class="st0" d="M1043.4,892.5h-10.1v-66.8h28.7v10.1h-18.6V854h13.6v10.1h-13.6V892.5z"/>
	<path class="st0" d="M1084.8,824.9c4.4,0,8.2,1.6,11.3,4.7c3.1,3.1,4.7,6.9,4.7,11.3v36.4c0,4.4-1.6,8.2-4.7,11.3
		c-3.1,3.1-6.9,4.7-11.3,4.7c-4.4,0-8.2-1.6-11.3-4.7c-3.1-3.1-4.6-6.9-4.6-11.3v-36.4c0-4.4,1.6-8.2,4.7-11.3
		C1076.8,826.4,1080.5,824.9,1084.8,824.9z M1090.3,840.7c0-1.6-0.6-3-1.7-4.1c-1.1-1.1-2.5-1.7-4.1-1.7c-1.6,0-2.9,0.6-4.1,1.7
		c-1.1,1.1-1.7,2.5-1.7,4.1v36.6c0,1.6,0.6,2.9,1.7,4.1c1.1,1.1,2.5,1.7,4.1,1.7c1.6,0,3-0.6,4.1-1.7s1.7-2.5,1.7-4.1V840.7z"/>
	<path class="st0" d="M1125.5,893.3c-4.4,0-8.2-1.5-11.3-4.6s-4.6-6.8-4.6-11.2v-51.8h9.9v51.7c0,1.6,0.6,2.9,1.7,4.1
		c1.1,1.1,2.5,1.7,4.1,1.7c1.6,0,3-0.6,4.1-1.7c1.1-1.1,1.7-2.5,1.7-4.1v-51.7h10.5v51.8c0,4.5-1.6,8.2-4.7,11.3
		S1129.9,893.3,1125.5,893.3z"/>
	<path class="st0" d="M1161.8,825.7l13.3,44.9v-44.9h10.1v66.8h-10.8l-13.9-42.8v42.8h-10.1v-66.8H1161.8z"/>
	<path class="st0" d="M1225.8,876.5c0,4.4-1.5,8.2-4.7,11.3s-6.8,4.7-11.2,4.7h-15.8v-66.8h15.8c4.4,0,8.1,1.6,11.2,4.7
		s4.6,6.9,4.6,11.2V876.5z M1204.3,882.5h6.1c1.6,0,3-0.6,4.1-1.7c1.1-1.2,1.6-2.5,1.6-4.1v-34.9c0-1.6-0.6-2.9-1.7-4.1
		c-1.1-1.1-2.5-1.7-4-1.7h-6.1V882.5z"/>
</g>
<g>
	<path class="st0" d="M995,176.5l35.5-84.4h20.1v84.4h12.9v20.3h-12.9v28.9h-20.1v-28.9H995V176.5z M1030.5,176.5V135l-16.6,41.5
		H1030.5z"/>
	<path class="st0" d="M1144,195.5c0,8.9-3.1,16.4-9.4,22.6c-6.3,6.2-13.7,9.3-22.5,9.3c-8.9,0-16.4-3.1-22.6-9.3
		c-6.2-6.2-9.3-13.7-9.3-22.5v-73.2c0-8.9,3.1-16.4,9.4-22.6c6.2-6.2,13.8-9.3,22.6-9.3c8.9,0,16.4,3.1,22.6,9.4
		c6.2,6.3,9.3,13.8,9.3,22.6V195.5z M1123.1,121.9c0-3.2-1.1-5.9-3.4-8.2c-2.3-2.3-5-3.4-8.2-3.4c-3.2,0-5.9,1.1-8.1,3.4
		c-2.2,2.3-3.4,5-3.4,8.2v73.3c0,3.2,1.1,5.9,3.4,8.2c2.2,2.3,5,3.4,8.1,3.4c3.2,0,6-1.1,8.2-3.4c2.3-2.3,3.4-5,3.4-8.2V121.9z"/>
	<path class="st0" d="M1157.8,176.5l35.5-84.4h20.1v84.4h12.9v20.3h-12.9v28.9h-20.1v-28.9h-35.5V176.5z M1193.4,176.5V135
		l-16.6,41.5H1193.4z"/>
</g>
</svg>
