<?xml version="1.0" encoding="utf-8"?>
<!-- Generator: Adobe Illustrator 22.0.1, SVG Export Plug-In . SVG Version: 6.00 Build 0)  -->
<svg version="1.1" id="Calque_1" xmlns="http://www.w3.org/2000/svg" xmlns:xlink="http://www.w3.org/1999/xlink" x="0px" y="0px"
	 viewBox="0 0 123.3 121.8" style="enable-background:new 0 0 123.3 121.8;" xml:space="preserve">
<style type="text/css">
	.st0{fill:#FFFFFF;}
	.st1{fill:#E98B39;}
	.st2{fill:#B3B3B3;}
	.st3{fill:none;stroke:#E98B39;stroke-width:2;stroke-miterlimit:10;}
</style>
<circle class="st0" cx="61.7" cy="60.9" r="58.4"/>
<path d="M38.5,25.8c2.5,0,3.5,1.6,3.5,4v1.8c0,2.6-1.2,3.9-3.8,3.9h-2v6.7h-1.1V25.8H38.5z M38.2,34.4c1.9,0,2.7-0.8,2.7-2.8v-1.9
	c0-1.8-0.6-2.9-2.4-2.9h-2.3v7.7h2V34.4z"/>
<path d="M47,25.8c2.5,0,3.5,1.4,3.5,3.7v1.4c0,1.9-0.7,3-2.4,3.4c1.7,0.4,2.4,1.6,2.4,3.3v2.5c0,0.7,0,1.4,0.4,2h-1.1
	c-0.3-0.5-0.4-1.1-0.4-2v-2.6c0-2.2-1.2-2.8-3.1-2.8h-1.7V42h-1.1V25.8H47z M46.4,33.8c1.9,0,3-0.5,3-2.7v-1.5
	c0-1.8-0.7-2.8-2.5-2.8h-2.3v7.1L46.4,33.8L46.4,33.8z"/>
<path d="M58.2,33.4v1h-4.5v6.8h5.4v1h-6.4V25.8h6.4v1h-5.4v6.6C53.7,33.4,58.2,33.4,58.2,33.4z"/>
<path d="M67.7,29.7v0.4h-1v-0.4c0-1.7-0.7-3-2.4-3c-1.8,0-2.4,1.3-2.4,3c0,4,5.9,4,5.9,8.6c0,2.4-1,4.1-3.5,4.1s-3.5-1.7-3.5-4.1
	v-0.8h1v0.9c0,1.8,0.7,3,2.5,3c1.8,0,2.5-1.3,2.5-3c0-3.9-5.9-4-5.9-8.6c0-2.5,1.1-4,3.5-4.1C66.7,25.6,67.7,27.4,67.7,29.7z"/>
<path d="M76.6,29.8v8.4c0,1.1-0.2,2.1-0.8,2.8c0.3,0.5,0.7,0.7,1.3,0.7h0.3v1h-0.3c-0.9,0-1.5-0.3-1.9-1c-0.5,0.4-1.2,0.7-2.1,0.7
	c-2.5,0-3.6-1.8-3.6-4.1v-8.4c0-2.4,1.1-4.1,3.6-4.1S76.6,27.4,76.6,29.8z M70.5,29.7v8.5c0,1.8,0.7,3.1,2.5,3.1s2.5-1.3,2.5-3.1
	v-8.5c0-1.8-0.7-3.1-2.5-3.1S70.5,27.9,70.5,29.7z"/>
<path d="M79.6,38.2c0,1.8,0.7,3.1,2.5,3.1s2.5-1.4,2.5-3.1V25.8h1v12.4c0,2.3-1,4.1-3.5,4.1s-3.5-1.8-3.5-4.1V25.8h1.1L79.6,38.2
	L79.6,38.2z"/>
<path d="M93.2,28.8h-0.6l0.6-2.1h-0.4v-2.4H94v2.3L93.2,28.8z"/>
<path class="st1" d="M41.3,85.3h-6.2v-40h6.2V85.3z"/>
<path d="M63.7,85.3H46.8v-40H53v34h10.7V85.3z"/>
<path class="st2" d="M68,85.3v-40h17.7v6H74.2v11h8.4v6h-8.4v11h11.5v6H68z"/>
<line class="st3" x1="42.6" y1="91.7" x2="78.7" y2="91.7"/>
<path d="M62.1,111.8c0.4,0.1,0.7,0.3,0.9,0.4c0.1,0.1,0.3,0.1,0.3,0.1s0,0-0.1,0c-0.1,0-0.1,0-0.3-0.1c-0.6-0.3-1.3-0.4-2.4-0.6
	c-1-0.1-2.2-0.3-3.5-0.4c-1.2-0.1-2.4-0.1-3.6-0.1c-1.2,0-2.2,0-3,0c-0.4,0.3-0.9,0.4-1.2,0.4c-0.3,0.1-0.6,0.1-0.7,0
	c-0.1,0-0.1,0-0.3-0.1s0-0.3,0-0.6c0.1-0.1,0.3-0.4,0.6-0.6c0.3-0.1,0.7-0.4,1.3-0.4l0,0c0.3-0.4,0.7-1,1.2-1.7
	c0.4-0.7,0.9-1.4,1.4-2.3c0.4-0.9,1-1.7,1.4-2.6c0.4-0.9,0.9-1.7,1.2-2.4c0.1-0.1,0.3-0.6,0.6-1.2s0.6-1.2,0.9-1.9
	c0.3-0.6,0.4-1.2,0.6-1.7c0.1-0.4,0-0.7-0.3-0.7s-0.7,0.1-1.4,0.6c-0.7,0.4-1.7,1.2-2.7,2.3c-0.6,0.6-1.2,1.3-1.7,2
	c-0.6,0.7-1,1.4-1.2,2c-0.1,0.4-0.1,0.9,0,1.2c0.1,0.3,0.4,0.4,0.7,0.6c0.3,0.1,0.6,0.3,0.9,0.3c0.3,0,0.4,0.1,0.4,0.1
	c-0.4,0-0.9,0-1.2,0c-0.4,0-0.7-0.1-1.2-0.3c-0.3-0.1-0.6-0.4-0.7-0.7c-0.1-0.3-0.1-0.7,0-1.3c0.1-0.9,0.6-1.7,1.3-2.6
	c0.7-0.9,1.4-1.6,2.3-2.2s1.7-1.2,2.6-1.6c0.9-0.4,1.4-0.6,1.9-0.6c1-0.1,1.4,0.3,1.6,1.4c0,1.2-0.6,2.9-1.7,5.2
	c-0.3,0.6-0.7,1.3-1,2.2c-0.4,0.7-0.9,1.6-1.3,2.3c-0.4,0.7-0.9,1.4-1.2,2.2s-0.7,1.2-1,1.4c0.6,0,1.4,0.1,2.3,0.3s1.7,0.3,2.7,0.4
	c0.9,0.1,1.9,0.4,2.7,0.6C60.7,111.2,61.4,111.5,62.1,111.8z"/>
<path d="M59.5,106.3c0.3-0.4,0.6-0.9,0.9-1.4c0.3-0.4,0.4-1,0.7-1.6c0-0.1,0.1-0.3,0.3-0.3c0.1,0,0.3,0,0.4,0.1
	c0.1,0.1,0.3,0.3,0.4,0.4c0.1,0.1,0.1,0.4,0,0.6c0,0.1-0.1,0.4-0.3,0.9c-0.1,0.4-0.4,0.9-0.6,1.3c-0.1,0.4-0.3,0.9-0.4,1.2
	c-0.1,0.3,0,0.6,0.1,0.7s0.4,0,0.7-0.3c0.3-0.3,0.6-0.7,0.9-1c0.3-0.4,0.4-0.9,0.7-1.3c0.3-0.4,0.1-0.6,0.1-0.6
	c0,0.1-0.1,0.3-0.1,0.6s-0.1,0.6-0.4,1c-0.1,0.3-0.3,0.7-0.6,1c-0.1,0.3-0.4,0.6-0.6,0.7c-0.4,0.4-0.9,0.4-1.4,0.1
	c0,0.1-0.1,0.3-0.3,0.6c-0.1,0.1-0.1,0.4-0.3,0.7c-0.1,0.3-0.1,0.4-0.3,0.6s-0.1,0.3-0.1,0.4c-0.1,0.3-0.3,0.6-0.6,1
	c-0.3,0.4-0.6,0.9-0.9,1.3c-0.3,0.4-0.7,0.9-1.2,1.2c-0.4,0.3-0.9,0.6-1.4,0.7c-0.6,0.1-1,0.1-1.3-0.1c-0.1-0.3-0.3-0.6-0.3-1
	c0-0.4,0.1-0.7,0.4-1.3c0.3-0.4,0.6-0.9,1-1.3c0.4-0.4,0.9-0.7,1.4-1c0.4-0.3,1-0.4,1.4-0.4c-0.4,0-0.9,0.3-1.3,0.6
	c-0.4,0.3-0.9,0.7-1.3,1c-0.4,0.3-0.7,0.9-0.9,1.3c-0.3,0.4-0.4,0.7-0.4,1c0,0.3,0,0.6,0,0.7s0.3,0.3,0.6,0.3c0.4,0,0.7-0.3,1.2-0.9
	c0.4-0.6,0.9-1.2,1.3-1.9c0.4-0.7,0.9-1.4,1.3-2.3c0.4-0.9,0.7-1.6,1-2.2c0-0.3,0.1-0.4,0.1-0.6c-0.9,1.2-1.6,1.9-2,2.3
	c-0.4,0.4-0.7,0.6-0.9,0.6c-0.6,0.1-0.9-0.1-1.2-0.4c-0.1-0.1-0.1-0.4-0.1-0.7c0-0.3,0.1-0.4,0.3-0.6c0.1-0.4,0.4-0.9,0.7-1.3
	c0.3-0.6,0.4-1,0.6-1.4c0.1-0.4,0.3-0.9,0.3-1.3c0-0.3,0-0.4-0.1-0.4c-0.1,0-0.1,0,0,0c0.1,0,0.3,0,0.4,0s0.3,0.1,0.4,0.3
	c0.1,0.1,0.3,0.4,0.3,0.9c0,0.4,0,0.7-0.3,1.3c-0.1,0.4-0.4,1-0.6,1.4c-0.1,0.4-0.4,0.9-0.6,1.2c-0.1,0.3-0.3,0.6-0.3,0.7l0,0
	c0,0.1,0.1,0.1,0.3,0c0.1-0.1,0.4-0.3,0.7-0.6c0.3-0.3,0.6-0.6,0.9-0.9C58.9,107,59.2,106.7,59.5,106.3z"/>
<path d="M66.1,108.4c0.1,0,0.4-0.1,0.7-0.3c0.3-0.1,0.6-0.4,0.9-0.7c0.3-0.3,0.6-0.6,0.7-1c0.3-0.3,0.4-0.6,0.6-0.9
	c0,0.3-0.1,0.7-0.4,1c-0.1,0.4-0.4,0.7-0.7,1c-0.3,0.3-0.6,0.6-0.9,0.9c-0.3,0.1-0.6,0.3-0.9,0.3c-0.1,0-0.3,0-0.4,0
	c-0.4,0.3-0.9,0.6-1.2,0.7s-0.7,0.3-1.2,0.3c-0.6,0-1-0.1-1.3-0.4s-0.4-0.7-0.3-1.3c0.1-0.6,0.1-1,0.4-1.7c0.3-0.6,0.6-1.2,1-1.6
	c0.4-0.4,0.9-0.9,1.3-1.3c0.4-0.3,1-0.4,1.4-0.4c0.4,0,0.9,0.1,1.2,0.4c0.4,0.3,0.6,0.7,0.6,1.3c0,0.4-0.1,1-0.4,1.7
	S66.7,107.9,66.1,108.4z M65.1,108c0-0.4,0.1-0.7,0.4-1c0.3-0.3,0.7-0.3,1,0c0.1,0,0.1-0.1,0.3-0.4c0.1-0.3,0.1-0.7,0.1-1
	c0-0.4,0-0.7-0.1-1c-0.1-0.3-0.3-0.4-0.7-0.4c-0.3,0-0.7,0.1-1,0.4c-0.4,0.3-0.7,0.7-1,1.2c-0.3,0.4-0.6,1-0.9,1.4
	c-0.1,0.6-0.3,1-0.1,1.4c0,0.3,0.1,0.4,0.3,0.6c0.1,0.1,0.3,0.1,0.6,0.1c0.3,0,0.4-0.1,0.7-0.1c0.3-0.1,0.4-0.3,0.6-0.4
	C65.3,108.4,65.1,108.2,65.1,108z"/>
<path d="M72.3,108.6c0,0.3,0,0.4,0.1,0.4c0.3,0,0.6-0.1,0.9-0.4c0.3-0.3,0.6-0.7,0.9-1.2c0.3-0.4,0.6-0.9,0.7-1.3
	c0.1-0.4,0.4-0.9,0.6-1.3c-0.1,0.7-0.4,1.4-0.9,2.3c-0.3,0.9-0.7,1.4-1.3,1.9c-0.1,0.1-0.4,0.3-0.7,0.4c-0.3,0.1-0.6,0.1-0.7,0.1
	c-0.3,0-0.4-0.1-0.6-0.3s-0.3-0.4-0.3-0.9c0-0.4,0-0.9,0.1-1.3c0.1-0.4,0.3-1,0.6-1.4c0.1-0.4,0.4-0.9,0.6-1.2
	c0.1-0.3,0.3-0.6,0.3-0.6l0,0c-0.1,0-0.4,0.1-0.9,0.6c-0.4,0.4-0.9,0.9-1.4,1.4c-0.4,0.6-0.9,1.2-1.3,1.7c-0.4,0.6-0.6,1.2-0.6,1.4
	c0,0.1,0,0.3,0.1,0.4c-0.3-0.1-0.6-0.3-0.7-0.4c-0.1-0.3-0.3-0.6-0.3-0.9v-0.1V108c0-0.1,0-0.4,0.1-0.9c0.1-0.4,0.3-1,0.6-1.6
	c0.3-0.6,0.6-1.2,0.9-1.6c0.3-0.4,0.7-0.7,1-0.7c0.3,0,0.6,0.1,0.6,0.4c0,0,0,0.1-0.1,0.4c-0.1,0.3-0.3,0.6-0.4,0.9
	c-0.1,0.3-0.4,0.6-0.6,1c-0.1,0.3-0.3,0.6-0.4,0.9c1-1.3,1.7-2.2,2.6-2.6c0.7-0.6,1.2-0.7,1.3-0.7c0.3,0,0.6,0.1,0.9,0.3
	c0.3,0.1,0.3,0.4,0.3,0.7c0,0-0.1,0.1-0.3,0.4s-0.4,0.9-0.7,1.3c-0.3,0.4-0.4,1-0.7,1.6C72.5,107.9,72.3,108.3,72.3,108.6z"/>
<circle class="st3" cx="61.3" cy="61" r="59"/>
</svg>
